# xmcd CD database file generated by OrangeCD 6.3
#
# Track frame offsets:
#	150
#	13177
#	23378
#	35985
#	47970
#	61474
#	72711
#	85555
#	96380
#	107667
#	119441
#	131400
#
# Disc length: 1905 seconds
#
# Revision: 0
# Processed by: cddbd v1.5.2PL0 Copyright (c) Steve Scherf et al.
# Submitted via: OrangeCD 6.3
#
DISCID=a7076f0c
DTITLE=Hank Snow The Singer Ranger and His Rainbow Ranch Boys - Country Classic
DTITLE=s
DYEAR=1955
DGENRE=Country
TTITLE0=I'm Movin' On
TTITLE1=Down the Trail of Achin' Hearts
TTITLE2=Rhumba Boogie
TTITLE3=Bluebird Island
TTITLE4=I Don't Hurt Anymore
TTITLE5=(Now and Then There's) A Fool Such as I
TTITLE6=Golden Rocket
TTITLE7=Unwanted Sign Upon Your Heart
TTITLE8=Music Makin' Mamma from Memphis
TTITLE9=Marriage Vow
TTITLE10=Gal Who Invented Kissin'
TTITLE11=With This Ring I Thee Wed
EXTD=
EXTT0=
EXTT1=
EXTT2=
EXTT3=
EXTT4=
EXTT5=
EXTT6=
EXTT7=
EXTT8=
EXTT9=
EXTT10=
EXTT11=
PLAYORDER=
